<svg xmlns="http://www.w3.org/2000/svg" width="74.85" height="67.28" viewBox="0 0 74.85 67.28">
  <defs>
    <style>
      .cls-1 {
        fill: #2ae4cc;
        fill-rule: evenodd;
      }
    </style>
  </defs>
  <path class="cls-1" d="M1232.07,3310.27l-13.77,7.13v-2.31l14.93-7.72a1.248,1.248,0,1,0-1.16-2.21l-13.77,7.13v-2.47l14.93-7.73a1.257,1.257,0,0,0,.54-1.69,1.27,1.27,0,0,0-1.7-.52L1218.3,3307v-2.32l14.68-7.59a1.235,1.235,0,0,0,.67-1.12,1.209,1.209,0,0,0-.7-1.11l-22.86-11.23a1.208,1.208,0,0,0-1.11,0l-49.22,23.91a1.254,1.254,0,0,0,0,2.26l24.61,11.88a1.172,1.172,0,0,0,.55.13,1.263,1.263,0,0,0,.57-0.14l15.89-8.23v2.32l-16.49,8.54-24.05-11.61a1.243,1.243,0,1,0-1.08,2.24l24.61,11.89a1.172,1.172,0,0,0,.55.13,1.157,1.157,0,0,0,.57-0.15l15.89-8.22v2.45l-16.49,8.54-24.05-11.61a1.248,1.248,0,0,0-1.08,2.25l24.61,11.88a1.182,1.182,0,0,0,.55.14,1.157,1.157,0,0,0,.57-0.15l15.89-8.22v2.29l-16.49,8.53-24.05-11.6a1.248,1.248,0,0,0-1.08,2.25l24.61,11.87a1.073,1.073,0,0,0,.55.14,1.157,1.157,0,0,0,.57-0.15l17.73-9.16,30.01-15.54a1.245,1.245,0,0,0,.54-1.68A1.269,1.269,0,0,0,1232.07,3310.27Zm-29.45-.29-21-10.28,11.92-5.79,20.64,10.09Zm6.9-23.84,20.09,9.87-12.67,6.56-20.54-10.06Zm-24.62,33.02-21.72-10.49,15.58-7.57,21.09,10.31Zm22.13-8.64a0.077,0.077,0,0,1,.03-0.02l8.73-4.51v12.7l-11.89,6.16v-12.7Zm-25.49-23.74c10.15,0,17.81-3.6,17.81-8.37s-7.65-8.36-17.81-8.36-17.82,3.6-17.82,8.36S1171.39,3286.78,1181.54,3286.78Zm0-14.23c9.02,0,15.3,3.09,15.3,5.86s-6.28,5.87-15.3,5.87-15.29-3.1-15.29-5.87S1172.53,3272.55,1181.54,3272.55Zm17.51,13.15a1.249,1.249,0,0,0-.63-1.66,1.272,1.272,0,0,0-1.67.63c-0.86,1.91-6.92,3.98-15.21,3.98s-14.34-2.07-15.22-3.99a1.258,1.258,0,0,0-2.29,1.04c1.71,3.75,10.27,5.46,17.51,5.46S1197.36,3289.45,1199.05,3285.7Zm-16.25,8.93a1.25,1.25,0,0,0-1.25-1.25c-8.28,0-14.34-2.07-15.22-3.99a1.268,1.268,0,0,0-1.67-.62,1.252,1.252,0,0,0-.63,1.66c1.71,3.75,10.27,5.46,17.51,5.46A1.255,1.255,0,0,0,1182.8,3294.63Zm-9.08,4.79a1.246,1.246,0,0,0,.18-2.48c-5.27-.79-7.3-2.12-7.62-2.7a1.257,1.257,0,0,0-2.21,1.2c1.28,2.3,5.85,3.43,9.46,3.98h0.19Zm-7.51-.67a1.258,1.258,0,0,0-2.07,1.43c0.7,0.99,2.3,1.79,4.91,2.41a1.032,1.032,0,0,0,.3.04,1.253,1.253,0,0,0,.3-2.47C1166.73,3299.46,1166.23,3298.78,1166.21,3298.75Zm30.86,1.02c2.89-1.19,5.6-1.27,6.06-.16s-1.51,2.96-4.4,4.15-5.61,1.27-6.07.16S1194.17,3300.96,1197.07,3299.77Z" transform="translate(-1159.06 -3270.06)"/>
</svg>
