<svg xmlns="http://www.w3.org/2000/svg" width="43" height="32.03" viewBox="0 0 43 32.03">
  <defs>
    <style>
      .cls-1 {
        fill: #2ae4cc;
        fill-rule: evenodd;
      }
    </style>
  </defs>
  <path class="cls-1" d="M477.948,3272.03a2.631,2.631,0,0,0-1.566.8c-8.96,8.91-15.667,16.26-24.219,24.86l-9.732-8.16a2.7,2.7,0,0,0-3.791.31,2.653,2.653,0,0,0,.307,3.76s0.011,0.01.016,0.01l11.634,9.77a2.7,2.7,0,0,0,3.636-.17c9.6-9.55,16.462-17.2,25.953-26.63A2.665,2.665,0,0,0,477.948,3272.03Z" transform="translate(-438 -3272)"/>
</svg>
