<svg xmlns="http://www.w3.org/2000/svg" width="70.344" height="53.47" viewBox="0 0 70.344 53.47">
  <defs>
    <style>
      .cls-1 {
        fill: #2ae4cc;
        fill-rule: evenodd;
      }
    </style>
  </defs>
  <path class="cls-1" d="M985.687,3299.03a7.949,7.949,0,0,0,7.955-7.91,1.227,1.227,0,0,0,0-.21,1.179,1.179,0,0,0,0-.59l-6.808-22.51v-0.07a1.5,1.5,0,0,0-.068-0.14,1.237,1.237,0,0,0-.161-0.23l-0.111-.11a0.859,0.859,0,0,0-.238-0.16l-0.127-.07a1.147,1.147,0,0,0-.442-0.12H970.261c-0.2-2.27-1.411-3.93-2.992-3.93s-2.83,1.68-2.983,3.93H948.868a1.144,1.144,0,0,0-.408.08,1.215,1.215,0,0,0-1.589.76l-3.272,10.99a1.259,1.259,0,0,0-.272.06,1.187,1.187,0,0,0-.416-0.08,9.282,9.282,0,0,0-9.281,7.04h-6.536a3.737,3.737,0,0,0-3.748,3.72v23.24a3.739,3.739,0,0,0,3.748,3.73h32.458a3.739,3.739,0,0,0,3.748-3.73h0v-1.69h21.469a1.211,1.211,0,0,0,1.215-1.21h0v-5.07a1.211,1.211,0,0,0-1.215-1.21H968.484v-34.19h15.554l-6.264,20.93a1.179,1.179,0,0,0,0,.59,1.112,1.112,0,0,0,0,.2A7.946,7.946,0,0,0,985.687,3299.03Zm0-2.42a5.506,5.506,0,0,1-5.448-4.74h10.887a5.511,5.511,0,0,1-5.439,4.71v0.03Zm-18.418-31.14a2.77,2.77,0,0,1,.569,1.44h-1.113A2.754,2.754,0,0,1,967.269,3265.47Zm-19.233,6.91,2.787,9.29a8.89,8.89,0,0,0-4.759-2.74Zm-5.1,8.74a1.009,1.009,0,0,1,.833,0,6.78,6.78,0,0,1,6.731,4.63H936.171a6.78,6.78,0,0,1,6.731-4.63h0.034Zm-15.808,7.04h32.424a1.31,1.31,0,0,1,1.317,1.31v10.6a87.086,87.086,0,0,1-14.083,2.26,3.679,3.679,0,0,0-6.927,0,86.448,86.448,0,0,1-14.083-2.26v-10.6a1.31,1.31,0,0,1,1.318-1.31h0.034Zm14.992,15.21a1.242,1.242,0,0,1,2.465,0,0.39,0.39,0,0,0,0,.3,1.242,1.242,0,0,1-2.465,0A0.39,0.39,0,0,0,942.12,3303.37Zm18.775,9.3a1.316,1.316,0,0,1-1.318,1.31H927.094a1.316,1.316,0,0,1-1.318-1.31h0v-10.14a86.791,86.791,0,0,0,14.066,2.18,3.677,3.677,0,0,0,6.961,0,85.671,85.671,0,0,0,14.066-2.16v10.14Zm22.692-4.13h-20.3v-2.59h20.262Zm-17.5-5.07h-2.8v-14a3.739,3.739,0,0,0-3.748-3.73H954.58l-4.913-16.39h16.387Zm19.6-31.09,5.1,17.04h-10.2Z" transform="translate(-923.344 -3262.97)"/>
</svg>
