<svg xmlns="http://www.w3.org/2000/svg" width="67" height="63" viewBox="0 0 67 63">
  <defs>
    <style>
      .cls-1 {
        fill: #2ae4cc;
        fill-rule: evenodd;
      }
    </style>
  </defs>
  <path class="cls-1" d="M775.9,3280.13H717.616c-0.79,0-1.581-.03-2.372,0h-0.1c0.52,0.51,1.031,1.02,1.551,1.54v-6.52c-0.256.45-.512,0.89-0.768,1.33,1-.51,2-1.03,3-1.55,2.4-1.24,4.807-2.49,7.2-3.73q4.337-2.25,8.682-4.49c2.519-1.31,5.039-2.61,7.566-3.92,1.209-.63,2.457-1.22,3.651-1.89a0.073,0.073,0,0,0,.054-0.03h-1.566c1.016,0.52,2.024,1.03,3.039,1.55q3.663,1.875,7.326,3.73,4.418,2.25,8.837,4.51,3.837,1.95,7.667,3.9c1.232,0.62,2.449,1.32,3.705,1.89a0.165,0.165,0,0,1,.054.02c-0.256-.45-0.511-0.89-0.767-1.33v6.51a1.558,1.558,0,0,0,1.55,1.54,1.579,1.579,0,0,0,1.551-1.54v-6.51a1.517,1.517,0,0,0-.768-1.33c-1.015-.52-2.023-1.04-3.039-1.55-2.418-1.23-4.845-2.47-7.263-3.7q-4.4-2.25-8.8-4.49c-2.558-1.3-5.116-2.61-7.674-3.91-1.264-.65-2.512-1.31-3.791-1.94a1.784,1.784,0,0,0-1.651-.02c-0.116.06-.225,0.12-0.341,0.18-0.6.31-1.194,0.61-1.791,0.92l-6.767,3.51c-2.922,1.5-5.837,3.02-8.76,4.53-2.635,1.36-5.279,2.73-7.914,4.09-1.45.76-2.907,1.51-4.357,2.26-0.07.03-.132,0.07-0.2,0.1a1.529,1.529,0,0,0-.768,1.33v6.51a1.564,1.564,0,0,0,1.55,1.54H773.43c0.791,0,1.581.02,2.372,0h0.1A1.52,1.52,0,1,0,775.9,3280.13Zm1.535,37.79H716.159c-0.829,0-1.659-.01-2.488,0h-0.109a1.54,1.54,0,1,0,0,3.08h61.279c0.829,0,1.659.02,2.488,0h0.109a1.56,1.56,0,0,0,1.55-1.54,1.577,1.577,0,0,0-1.55-1.54h0Zm-41.295-28.56v26.38c0,1.23-.031,2.45,0,3.68v0.05a1.559,1.559,0,0,0,1.551,1.54,1.578,1.578,0,0,0,1.55-1.54v-26.38c0-1.23.031-2.45,0-3.67v-0.06a1.558,1.558,0,0,0-1.55-1.54,1.579,1.579,0,0,0-1.551,1.54h0Zm-12.5,30.1v-26.38c0-1.22.031-2.45,0-3.67v-0.05a1.551,1.551,0,0,0-3.1,0v26.38c0,1.22-.031,2.44,0,3.67v0.05a1.551,1.551,0,0,0,3.1,0h0Zm43.72-30.1v26.38c0,1.23-.031,2.45,0,3.68v0.05a1.558,1.558,0,0,0,1.551,1.54,1.578,1.578,0,0,0,1.55-1.54v-26.38c0-1.23.031-2.45,0-3.67v-0.06a1.558,1.558,0,0,0-1.55-1.54,1.578,1.578,0,0,0-1.551,1.54h0Zm-15.6,0v26.38c0,1.23-.031,2.45,0,3.68v0.05a1.558,1.558,0,0,0,1.55,1.54,1.578,1.578,0,0,0,1.55-1.54v-26.38c0-1.23.031-2.45,0-3.67v-0.06a1.55,1.55,0,0,0-3.1,0h0Zm-4.248-17.22c0,0.09-.008.18-0.008,0.27,0,0.23.085-.38,0.008-0.04a3.9,3.9,0,0,1-.1.4c-0.008.03-.023,0.06-0.031,0.1-0.047.12-.047,0.13,0.008,0,0.015-.03.023-0.06,0.038-0.09-0.031.06-.054,0.12-0.085,0.19a2.456,2.456,0,0,1-.263.43,0.336,0.336,0,1,0,.054-0.08c-0.054.06-.109,0.12-0.171,0.19a1.691,1.691,0,0,1-.333.3c-0.016-.01.279-0.19,0.07-0.07a1.132,1.132,0,0,0-.171.11,1.724,1.724,0,0,1-.225.12l-0.139.06c0.2-.09.24-0.1,0.132-0.06a3.7,3.7,0,0,0-.45.12,1.194,1.194,0,0,1-.209.04c0.023,0.03.364-.03,0.038-0.02a1.935,1.935,0,0,0-.48-0.01c0.186-.06.271,0.05,0.1,0.01-0.1-.02-0.2-0.04-0.3-0.07a1.137,1.137,0,0,0-.248-0.07c-0.2-.03.326,0.17,0.039,0.02-0.116-.06-0.24-0.12-0.357-0.19-0.031-.02-0.054-0.04-0.085-0.06-0.108-.07-0.108-0.07-0.008,0,0.024,0.03.055,0.04,0.078,0.07a1.96,1.96,0,0,1-.155-0.14,3.3,3.3,0,0,1-.349-0.35,0.539,0.539,0,1,0,.054.08,2.124,2.124,0,0,1-.139-0.21,1.479,1.479,0,0,1-.21-0.4c0.016-.02.109,0.32,0.047,0.08-0.023-.08-0.054-0.16-0.07-0.24s-0.039-.17-0.054-0.26c-0.07-.3,0,0.33.008,0v-0.44c0.007-.31-0.008.11-0.024,0.1a1.118,1.118,0,0,1,.047-0.26,2.537,2.537,0,0,1,.132-0.44c0.015,0-.148.3-0.039,0.09l0.14-.27a1.606,1.606,0,0,0,.131-0.21c0.07-.18-0.248.27-0.031,0.03,0.093-.1.179-0.2,0.279-0.29,0.062-.05.132-0.11,0.186-0.16,0.14-.15-0.317.19-0.031,0.03,0.148-.09.287-0.17,0.442-0.25,0.264-.14-0.085.05-0.085,0.04s0.217-.07.24-0.08c0.148-.04.31-0.05,0.458-0.1a0.854,0.854,0,1,0-.093.03c0.093,0,.178-0.01.271-0.01a1.138,1.138,0,0,1,.271.02c-0.008-.03-0.38-0.08,0,0a2.241,2.241,0,0,1,.5.15c0,0.01-.3-0.15-0.085-0.04,0.093,0.05.178,0.09,0.271,0.14,0.055,0.03.117,0.08,0.171,0.11,0.279,0.15-.209-0.2.008,0,0.139,0.12.263,0.25,0.4,0.38a0.263,0.263,0,1,0-.023-0.04,1.9,1.9,0,0,1,.163.26c0.031,0.06.069,0.11,0.1,0.17s0.047,0.1.07,0.14c0.047,0.11.031,0.06-.062-0.13a2.763,2.763,0,0,1,.147.49c0.008,0.04.016,0.07,0.024,0.1h0c-0.016-.13-0.024-0.13-0.008.01a1.591,1.591,0,0,1,.008.2,1.55,1.55,0,0,0,3.1,0,5.081,5.081,0,0,0-8.938-3.27,5.075,5.075,0,0,0-.5,5.86,5.209,5.209,0,0,0,5.411,2.35,5.116,5.116,0,0,0,4.038-4.94,1.552,1.552,0,0,0-1.55-1.54A1.573,1.573,0,0,0,747.508,3272.14Z" transform="translate(-712 -3258)"/>
</svg>
