<svg xmlns="http://www.w3.org/2000/svg" width="79" height="53.06" viewBox="0 0 79 53.06">
  <defs>
    <style>
      .cls-1 {
        fill: #2ae4cc;
        fill-rule: evenodd;
      }
    </style>
  </defs>
  <path class="cls-1" d="M364.981,3061.45a1.242,1.242,0,0,0-.274-1.07,1.272,1.272,0,0,0-1.232-.41l-76.484,16.33a1.266,1.266,0,0,0-1,1.07,1.254,1.254,0,0,0,.678,1.29l21.757,11.19,1.3,8.1,1.936,13.96a1.269,1.269,0,0,0,.746.98,1.333,1.333,0,0,0,.517.11,1.253,1.253,0,0,0,.719-0.22l15.4-10.46,0-.01,15.269,9.97a1.289,1.289,0,0,0,1.1.15,1.26,1.26,0,0,0,.8-0.77l18.351-48.98A1.259,1.259,0,0,0,364.981,3061.45ZM291,3078.03l65.147-13.91L309.59,3087.6Zm27.079,15.07h0a1.316,1.316,0,0,0-.468.63l-4.01,12.33-1.359-8.5-1.1-7.91L350,3070.06Zm-2.57,15.34,4.016-12.34,7.217,4.71Zm28.86,0.85-23.3-15.22,39.742-28.67Z" transform="translate(-286 -3059.94)"/>
</svg>
