<svg xmlns="http://www.w3.org/2000/svg" width="81.59" height="31.47" viewBox="0 0 81.59 31.47">
  <defs>
    <style>
      .cls-1 {
        fill: #2ae4cc;
        fill-rule: evenodd;
      }
    </style>
  </defs>
  <path class="cls-1" d="M1048.03,3091.84a5.188,5.188,0,0,1-5.2-5.16,1.7,1.7,0,0,0-3.4,0,8.574,8.574,0,0,0,8.6,8.54A1.69,1.69,0,1,0,1048.03,3091.84Zm58.55-6.85h-3.9a15.842,15.842,0,0,0-31.21-1.64,7.607,7.607,0,0,0-4.13-1.33,0.97,0.97,0,0,0-.17.01,7.082,7.082,0,0,0-3.7,1.22,15.844,15.844,0,0,0-31.19,1.74h-3.89a1.69,1.69,0,1,0,0,3.38h3.89a15.83,15.83,0,0,0,31.54-.98,5.23,5.23,0,0,1,3.44-1.99c1.19-.01,2.48.68,3.88,2.04a15.832,15.832,0,0,0,31.54.93h3.9A1.69,1.69,0,1,0,1106.58,3084.99Zm-58.56,14.05a12.365,12.365,0,1,1,12.44-12.36A12.415,12.415,0,0,1,1048.02,3099.04Zm38.92,0a12.365,12.365,0,1,1,12.43-12.36A12.417,12.417,0,0,1,1086.94,3099.04Z" transform="translate(-1026.69 -3070.94)"/>
</svg>
