<svg xmlns="http://www.w3.org/2000/svg" width="85" height="66.69" viewBox="0 0 85 66.69">
  <defs>
    <style>
      .cls-1 {
        fill: #2ae4cc;
        fill-rule: evenodd;
      }
    </style>
  </defs>
  <path class="cls-1" d="M619.458,3082.84H589.85v-17.97a3.527,3.527,0,0,0-3.542-3.52H541.542a3.527,3.527,0,0,0-3.542,3.52v29.52a3.534,3.534,0,0,0,3.542,3.52h2.068v7.28a1.374,1.374,0,0,0,.85,1.23,1.533,1.533,0,0,0,.519.1,1.4,1.4,0,0,0,.945-0.41l8.141-8.24h17v18a3.54,3.54,0,0,0,3.551,3.53h32.272l8.141,8.24a1.391,1.391,0,0,0,.944.4,1.538,1.538,0,0,0,.52-0.09,1.388,1.388,0,0,0,.85-1.27v-7.28h2.077a3.533,3.533,0,0,0,3.58-3.48v-29.56a3.534,3.534,0,0,0-3.542-3.52h0Zm-48.318,3.52v8.79H553.527a1.34,1.34,0,0,0-.945.4l-6.224,6.3v-5.3a1.367,1.367,0,0,0-1.331-1.4h-3.485a0.8,0.8,0,0,1-.8-0.8v-29.48a0.8,0.8,0,0,1,.8-0.8h44.766a0.8,0.8,0,0,1,.8.8v17.97H574.692a3.531,3.531,0,0,0-3.552,3.51v0.01Zm15.971-.8v8.83a0.8,0.8,0,0,1-.8.8H573.889v-8.83a0.813,0.813,0,0,1,.812-0.8h12.41Zm33.15,30.31a0.817,0.817,0,0,1-.8.81h-3.447a1.355,1.355,0,0,0-1.369,1.34v5.3l-6.205-6.26a1.308,1.308,0,0,0-.945-0.41h-32.8a0.81,0.81,0,0,1-.813-0.81h0v-17.93h12.429a3.534,3.534,0,0,0,3.542-3.52v-8.83h29.608a0.814,0.814,0,0,1,.8.8v29.51Z" transform="translate(-538 -3061.34)"/>
</svg>
