<svg xmlns="http://www.w3.org/2000/svg" width="66.438" height="67.59" viewBox="0 0 66.438 67.59">
  <defs>
    <style>
      .cls-1 {
        fill: #2ae4cc;
        fill-rule: evenodd;
      }
    </style>
  </defs>
  <path class="cls-1" d="M845.4,3074.42a1.32,1.32,0,1,1,0-2.64,4.62,4.62,0,1,0,0-9.24H793.6a4.62,4.62,0,1,0,0,9.24,1.32,1.32,0,1,1,0,2.64,7.26,7.26,0,1,1,0-14.52h51.8A7.26,7.26,0,1,1,845.4,3074.42Zm-25.9,53.07a5.363,5.363,0,0,1-3.267-1.13l-7.16-5.54a2.667,2.667,0,0,0-3.147-.08l-4.636,3.21a5.335,5.335,0,0,1-7.4-1.31,5.227,5.227,0,0,1-.956-3.02v-58.4a1.323,1.323,0,0,1,1.328-1.32h50.472a1.323,1.323,0,0,1,1.328,1.32v58.39a5.308,5.308,0,0,1-8.367,4.32h0l-4.57-3.19a2.658,2.658,0,0,0-3.161.08l-7.2,5.56A5.352,5.352,0,0,1,819.5,3127.49Zm-12.06-9.88a5.357,5.357,0,0,1,3.267,1.12l7.159,5.56a2.655,2.655,0,0,0,3.268,0l7.212-5.56a5.342,5.342,0,0,1,6.309-.15l4.569,3.19a2.653,2.653,0,0,0,4.184-2.16v-57.07H795.592v57.08a2.66,2.66,0,0,0,4.184,2.16l4.622-3.2A5.341,5.341,0,0,1,807.44,3117.61Zm24.014-35.27H820.828a6.6,6.6,0,1,1,0-13.2h10.626A6.6,6.6,0,1,1,831.454,3082.34Zm-10.626-10.56a3.96,3.96,0,1,0,0,7.92h10.626a3.96,3.96,0,1,0,0-7.92H820.828Zm15.939,21.12H802.233a1.32,1.32,0,1,1,0-2.64h34.534A1.32,1.32,0,1,1,836.767,3092.9Zm0,9.24H802.233a1.32,1.32,0,1,1,0-2.64h34.534A1.32,1.32,0,1,1,836.767,3102.14Zm0,9.24H802.233a1.32,1.32,0,1,1,0-2.64h34.534A1.32,1.32,0,1,1,836.767,3111.38Z" transform="translate(-786.281 -3059.91)"/>
</svg>
