<svg xmlns="http://www.w3.org/2000/svg" width="55.76" height="55.44" viewBox="0 0 55.76 55.44">
  <defs>
    <style>
      .cls-1 {
        fill: #2ae4cc;
        fill-rule: evenodd;
      }
    </style>
  </defs>
  <path class="cls-1" d="M1322.38,3091.49a1.4,1.4,0,0,1,0-.29,8.469,8.469,0,0,1,.13-0.96v-1.61a13.836,13.836,0,0,0-.73-4.82c-0.11-.32-0.24-0.61-0.39-0.95a14.175,14.175,0,0,0-7.03-6.98,7.6,7.6,0,0,0-.89-0.37,14.286,14.286,0,0,0-9.9,0c-0.32.11-.63,0.24-0.94,0.38a14.194,14.194,0,0,0-7.04,7.04c-0.13.29-.26,0.58-0.35,0.84a13.816,13.816,0,0,0-.02,9.81c0.11,0.32.24,0.61,0.39,0.95a14.175,14.175,0,0,0,7.03,6.98,7.6,7.6,0,0,0,.89.37,14.173,14.173,0,0,0,9.9,0c0.32-.11.63-0.24,0.94-0.38a14.194,14.194,0,0,0,7.04-7.04c0.13-.29.26-0.58,0.35-0.84h0c0.08-.2.15-0.41,0.22-0.62s0.13-.37.18-0.56S1322.31,3091.81,1322.38,3091.49Zm-3.12,1.32c-0.08.21-.18,0.43-0.28,0.66a11.543,11.543,0,0,1-5.71,5.69c-0.23.09-.45,0.2-0.73,0.29a11.471,11.471,0,0,1-8.12,0c-0.24-.08-0.46-0.18-0.67-0.27a11.582,11.582,0,0,1-5.74-5.72c-0.09-.21-0.19-0.42-0.28-0.69a11.352,11.352,0,0,1-.74-3.96,11.5,11.5,0,0,1,.75-4.06c0.08-.21.18-0.43,0.28-0.66a11.543,11.543,0,0,1,5.71-5.69c0.23-.09.45-0.2,0.73-0.29a11.364,11.364,0,0,1,8.12,0c0.24,0.08.46,0.18,0.67,0.27a11.582,11.582,0,0,1,5.74,5.72c0.09,0.21.19,0.42,0.28,0.69a11.03,11.03,0,0,1-.01,7.97v0.05Zm13.92-10.72h-3.57a20.249,20.249,0,0,0-1.49-3.57l2.54-2.51a3.169,3.169,0,0,0,0-4.5h0l-4.9-4.85a3.3,3.3,0,0,0-4.53,0l-2.52,2.52a20.948,20.948,0,0,0-3.57-1.47v-3.56a3.192,3.192,0,0,0-3.2-3.18h-6.88a3.192,3.192,0,0,0-3.2,3.18v3.56a21.249,21.249,0,0,0-3.6,1.47l-2.52-2.52a3.3,3.3,0,0,0-4.53,0l-4.87,4.87a3.169,3.169,0,0,0,0,4.5h0l2.54,2.51a20.375,20.375,0,0,0-1.49,3.55h-3.57a3.194,3.194,0,0,0-3.2,3.19v6.83a3.186,3.186,0,0,0,3.2,3.18h3.57a20.034,20.034,0,0,0,1.49,3.58l-2.54,2.51a3.169,3.169,0,0,0,0,4.5h0l4.9,4.85a3.3,3.3,0,0,0,4.53,0l2.52-2.53a20.989,20.989,0,0,0,3.57,1.48v3.55a3.186,3.186,0,0,0,3.2,3.18h6.88a3.186,3.186,0,0,0,3.2-3.18v-3.55a21.291,21.291,0,0,0,3.6-1.48l2.52,2.53a3.3,3.3,0,0,0,4.53,0l4.87-4.88a3.157,3.157,0,0,0,0-4.49v-0.01l-2.54-2.5a20.153,20.153,0,0,0,1.49-3.56h3.57a3.186,3.186,0,0,0,3.2-3.18v-6.83A3.194,3.194,0,0,0,1333.18,3082.09Zm0.55,10.02a0.546,0.546,0,0,1-.55.54h-4.56a1.326,1.326,0,0,0-1.33.99,18.737,18.737,0,0,1-1.99,4.78,1.3,1.3,0,0,0,.2,1.61l3.28,3.18a0.534,0.534,0,0,1,0,.75v0.01l-4.88,4.88a0.44,0.44,0,0,1-.75,0l-3.24-3.22a1.331,1.331,0,0,0-1.62-.2,18.7,18.7,0,0,1-4.81,1.98,1.329,1.329,0,0,0-1,1.32v4.54a0.538,0.538,0,0,1-.54.54h-6.88a0.538,0.538,0,0,1-.54-0.54v-4.58a1.337,1.337,0,0,0-1-1.32,18.7,18.7,0,0,1-4.81-1.98,1.428,1.428,0,0,0-.67-0.18,1.33,1.33,0,0,0-.95.38l-3.2,3.26a0.44,0.44,0,0,1-.75,0l-4.92-4.84a0.534,0.534,0,0,1,0-.75v-0.01l3.24-3.22a1.3,1.3,0,0,0,.2-1.61,18.737,18.737,0,0,1-1.99-4.78,1.326,1.326,0,0,0-1.33-.99h-4.52a0.546,0.546,0,0,1-.55-0.54v-6.83a0.555,0.555,0,0,1,.55-0.55h4.56a1.316,1.316,0,0,0,1.33-.99,18.82,18.82,0,0,1,1.99-4.77,1.317,1.317,0,0,0-.2-1.62l-3.28-3.18a0.522,0.522,0,0,1,0-.74v-0.01l4.88-4.84a0.44,0.44,0,0,1,.75,0l3.24,3.22a1.345,1.345,0,0,0,1.62.2,18.353,18.353,0,0,1,4.81-1.98,1.337,1.337,0,0,0,1-1.32v-4.55a0.544,0.544,0,0,1,.54-0.54h6.88a0.544,0.544,0,0,1,.54.54v4.55a1.337,1.337,0,0,0,1,1.32,18.353,18.353,0,0,1,4.81,1.98,1.345,1.345,0,0,0,1.62-.2l3.2-3.26a0.44,0.44,0,0,1,.75,0l4.88,4.84a0.534,0.534,0,0,1,0,.75h0l-3.24,3.22a1.317,1.317,0,0,0-.2,1.62,18.82,18.82,0,0,1,1.99,4.77,1.316,1.316,0,0,0,1.33.99h4.56a0.555,0.555,0,0,1,.55.55v6.83Z" transform="translate(-1280.62 -3060.97)"/>
</svg>
