<svg id="Grupa_1" data-name="Grupa 1" xmlns="http://www.w3.org/2000/svg" width="224" height="112" viewBox="0 0 224 112">
  <defs>
    <style>
      .cls-1 {
        fill: #11e1c6;
      }

      .cls-1, .cls-2 {
        fill-rule: evenodd;
      }

      .cls-2 {
        fill: #fff;
      }
    </style>
  </defs>
  <path class="cls-1" d="M243.145,133.534a8.269,8.269,0,1,1,8.269,8.239,8.259,8.259,0,0,1-8.269-8.239m13.933,0a5.665,5.665,0,1,0-5.664,5.644,5.571,5.571,0,0,0,5.664-5.644m7.243-8.027h4.831a8.026,8.026,0,1,1,0,16.052h-4.831V125.507Zm4.831,13.617a5.593,5.593,0,0,0,0-11.182h-2.227v11.182h2.227Zm11.515-.775,2.254-1.364a3.593,3.593,0,0,0,3.436,2.273c1.5,0,2.6-.775,2.6-2.087,0-3.4-7.623-2.087-7.623-7.41,0-2.89,2.281-4.468,4.8-4.468a5.986,5.986,0,0,1,4.618,2.142l-1.853,1.685a3.474,3.474,0,0,0-2.765-1.392,1.9,1.9,0,0,0-2.175,1.846c0,3.291,7.624,1.9,7.624,7.6,0,2.89-2.362,4.6-5.262,4.6a6.168,6.168,0,0,1-5.663-3.424m26.385,0.775v2.435H294.783l7.785-13.617h-7.115v-2.435H306.89l-7.758,13.617h7.92Zm7.862-5.137h-0.859v7.572h-2.631V125.507h2.631v6.128h0.913l5.853-6.128h3.462l-7.141,7.278,7.679,8.774H321.25Zm12.185-.453a8.269,8.269,0,1,1,8.269,8.239,8.258,8.258,0,0,1-8.269-8.239m13.932,0a5.665,5.665,0,1,0-5.663,5.644,5.57,5.57,0,0,0,5.663-5.644m7.244-8.027h4.831a8.026,8.026,0,1,1,0,16.052h-4.831V125.507Zm4.831,13.617a5.593,5.593,0,0,0,0-11.182h-2.228v11.182h2.228Zm12.077-5.59a8.269,8.269,0,1,1,8.269,8.239,8.258,8.258,0,0,1-8.269-8.239m13.931,0a5.664,5.664,0,1,0-5.662,5.644,5.57,5.57,0,0,0,5.662-5.644m27.6-8.027-4.7,16.052h-2.953l-3.571-12.842-3.516,12.842h-2.927l-4.751-16.052h2.791l3.49,12.091,3.437-12.091h2.98l3.462,12.146,3.517-12.146h2.739Zm11.805,12.655h-6.576l-1.155,3.4h-2.845l5.825-16.052h2.926l5.825,16.052h-2.845Zm-0.751-2.3-2.524-7.491-2.523,7.491h5.047Zm22.225-10.354v16.052h-2.63l-8.913-11.932v11.932h-2.631V125.507h2.631l8.94,11.905v-11.9h2.6Zm5.389,0h2.631v16.052h-2.631V125.507Zm16.617,12.655h-6.576l-1.155,3.4h-2.845l5.825-16.052h2.925l5.826,16.052h-2.845Zm-0.751-2.3-2.524-7.491-2.523,7.491h5.047Z" transform="translate(-243 -38)"/>
  <path id="Shape_1_copy" data-name="Shape 1 copy" class="cls-2" d="M308.937,101.26L250.284,53.414V101.26H243V38.091l77.329,63.169H308.937ZM266.886,38.09l58.653,47.846V38.09h7.284v63.17L255.494,38.09h11.392Zm95.106,63.127V38h7.284V85.894L427.984,38h11.5Zm91.972,0.043-34.32-28.039L385.271,101.26h-11.5l45.871-37.421,45.873,37.421H453.964Zm-102.914-.033h-7.284V69.675h7.284v31.552Zm0-43.227h-7.284V50.741h7.284V58ZM467,118.886H243v-1.877H467v1.877ZM467,150H243v-1.878H467V150Z" transform="translate(-243 -38)"/>
</svg>
