<svg xmlns="http://www.w3.org/2000/svg" width="693.031" height="486" viewBox="0 0 693.031 486">
  <defs>
    <style>
      .cls-1 {
        fill: #2ae4cc;
        fill-rule: evenodd;
      }
    </style>
  </defs>
  <path id="Shape_4_copy_9" data-name="Shape 4 copy 9" class="cls-1" d="M1524.63,2646.92l-208.48,170.64V2646.92h-25.89v225.29l274.86-225.29h-40.49Zm-149.47,225.29,208.48-170.64m-556.15-54.29,208.56,170.64V2647.28h25.9v225.29L986.98,2647.28h40.51ZM1629.54,2975l208.56-170.65V2975H1864V2749.7L1589.03,2975h40.51Zm0-260.69,208.56-170.65v170.65H1864v-225.3l-274.97,225.3h40.51Zm0.49,157.9-149.64-122.15-149.88,122.15m0,35.18,150.01-122.15,149.51,122.15H1330.51Zm491.76-157.33-149.64,122.16-149.88-122.16m0-35.18,150.01,122.16,149.51-122.16H1522.75Zm108.77-103.36-149.64-122.15L1332,2611.52m0,35.19,150.01-122.16,149.51,122.16H1332Zm491.76-157.34-149.64,122.16-149.88-122.16m0-35.18,150.01,122.16,149.51-122.16H1524.24Z" transform="translate(-986.969 -2489)"/>
</svg>
