<svg xmlns="http://www.w3.org/2000/svg" width="519.5" height="326.25" viewBox="0 0 519.5 326.25">
  <defs>
    <style>
      .cls-1 {
        fill: #11e1c6;
        fill-rule: evenodd;
      }
    </style>
  </defs>
  <path id="Shape_4_copy_8" data-name="Shape 4 copy 8" class="cls-1" d="M1521.27,231.758l-139.9,114.554V231.758H1364V383l184.44-151.241h-27.17ZM1420.97,383l139.9-114.555M1187.67,232l139.95,114.554V232H1345V383.242L1160.49,232h27.18Zm404,220,139.95-114.555V452H1749V300.758L1564.49,452h27.18Zm0-175,139.95-114.554V277H1749V125.758L1564.49,277h27.18ZM1592,383l-100.42-82-100.57,82m0,23.617,100.66-82,100.33,82H1391.01ZM1721,301l-100.42,82-100.57-82m0-23.617,100.66,82,100.33-82H1520.01ZM1593,208l-100.42-82-100.57,82m0,23.617,100.66-82,100.33,82H1392.01ZM1722,126l-100.42,82-100.57-82m0-23.617,100.66,82,100.33-82H1521.01Z" transform="translate(-1160.5 -125.75)"/>
</svg>
