<svg xmlns="http://www.w3.org/2000/svg" width="640.031" height="486" viewBox="0 0 640.031 486">
  <defs>
    <style>
      .cls-1 {
        fill: #f5f5f5;
        fill-rule: evenodd;
      }
    </style>
  </defs>
  <path id="Shape_4_copy_8" data-name="Shape 4 copy 8" class="cls-1" d="M102.37,853.915L310.849,1024.56V853.915h25.889v225.3L61.876,853.915H102.37Zm149.467,225.3L43.359,908.567m556.153-54.291L390.954,1024.92V854.276h-25.9V1079.57L640.02,854.276H599.512ZM-2.54,1182L-211.1,1011.35V1182H-237V956.7L37.968,1182H-2.54Zm0-260.69L-211.1,750.664V921.31H-237v-225.3L37.968,921.31H-2.54Zm-0.489,157.9L146.612,957.057,296.487,1079.21m0,35.18-150-122.152L-3.03,1114.39H296.487ZM-195.269,957.062L-45.628,1079.22,104.247,957.062m0-35.181-150,122.159L-195.269,921.881H104.247ZM-4.52,818.524L145.121,696.368,295,818.524m0,35.181-150-122.157L-4.52,853.705H295ZM-196.759,696.372L-47.118,818.529,102.757,696.372m0-35.181-150,122.157L-196.759,661.191H102.757Z" transform="translate(0 -696)"/>
</svg>
